<?xml version="1.0" encoding="utf-8"?>
<!-- Generator: Adobe Illustrator 21.1.0, SVG Export Plug-In . SVG Version: 6.00 Build 0)  -->
<svg version="1.1" id="Camada_1" xmlns="http://www.w3.org/2000/svg" xmlns:xlink="http://www.w3.org/1999/xlink" x="0px" y="0px"
	 viewBox="0 0 1366 660.5" style="enable-background:new 0 0 1366 660.5;" xml:space="preserve">
<style type="text/css">
	.st0{clip-path:url(#SVGID_2_);fill:url(#Caminho_7000_1_);}
	.st1{clip-path:url(#SVGID_2_);fill:url(#Caminho_7001_2_);}
	.st2{clip-path:url(#SVGID_2_);fill:url(#Caminho_7001_3_);}
	.st3{opacity:0.47;clip-path:url(#SVGID_2_);fill:url(#Caminho_7002_1_);enable-background:new    ;}
	.st4{opacity:0.84;clip-path:url(#SVGID_2_);fill:url(#Caminho_7003_1_);enable-background:new    ;}
	.st5{clip-path:url(#SVGID_2_);fill:#EF4136;}
</style>
<g>
	<defs>
		<rect id="SVGID_1_" width="1366" height="660.5"/>
	</defs>
	<clipPath id="SVGID_2_">
		<use xlink:href="#SVGID_1_"  style="overflow:visible;"/>
	</clipPath>
	
		<linearGradient id="Caminho_7000_1_" gradientUnits="userSpaceOnUse" x1="-814.3427" y1="1829.1837" x2="-815.3427" y2="1828.1837" gradientTransform="matrix(1161.4738 0 0 -627.9695 946817.8125 1148483.875)">
		<stop  offset="9.191177e-04" style="stop-color:#FFFFFF"/>
		<stop  offset="1" style="stop-color:#EF4136"/>
	</linearGradient>
	<path id="Caminho_7000" class="st0" d="M-86.3,61.5C-14-43.7,91.8-62.2,220.3-58.3c109.9,3.3,229.1,29,330.1-6.2
		c100.6-35.2,169.8-99.4,278.8-94.6c146.2,6.4,210.5,106.4,202.9,203.9C1021.7,180,885.7,247.5,749.7,238.9
		C637.2,231.7,518,222,418.5,283.7c-91.7,56.8-152.4,182.2-280.8,184.8C-8,471.6-220,256-86.3,61.5z"/>
	
		<linearGradient id="Caminho_7001_2_" gradientUnits="userSpaceOnUse" x1="-814.2601" y1="1829.4114" x2="-815.2601" y2="1828.4114" gradientTransform="matrix(1052.5632 0 0 -719.8115 857701.3125 1316606.875)">
		<stop  offset="0" style="stop-color:#FFFFFF"/>
		<stop  offset="1" style="stop-color:#EF4136"/>
	</linearGradient>
	<path id="Caminho_7001" class="st1" d="M-360.7,180.7C-320.2,69.4-226.6,32.5-106.1,12.1C-3.1-5.4,114.2-3.7,199.1-55.4
		c84.6-51.5,132.5-124.1,235.1-140.1C571.8-216.8,657-135.8,674.8-43.8C699.4,83.7,590.2,172,461.6,189.4
		C355.2,203.7,241.9,217,165.1,293c-70.8,70-95.3,197.8-214,224.3C-183.5,547.3-435.5,386.5-360.7,180.7z"/>
	
		<linearGradient id="Caminho_7001_3_" gradientUnits="userSpaceOnUse" x1="-814.3607" y1="1828.4847" x2="-815.4515" y2="1827.3939" gradientTransform="matrix(1052.5632 0 0 -719.8115 857701.3125 1316606.875)">
		<stop  offset="0" style="stop-color:#FFFFFF"/>
		<stop  offset="1" style="stop-color:#EF4136"/>
	</linearGradient>
	<path id="Caminho_7001_1_" class="st2" d="M-572.6,883.3c45.2-118.6,150-158,284.6-179.7c115.2-18.6,246.4-16.9,341.2-71.9
		c94.6-54.9,148.1-132.3,262.8-149.2C469.8,459.7,565.1,546,585,644c27.6,135.9-94.6,230-238.3,248.5
		c-119,15.3-245.5,29.5-331.5,110.4c-79.1,74.6-106.5,210.8-239.2,239C-374.5,1274-656.2,1102.6-572.6,883.3z"/>
	
		<linearGradient id="Caminho_7002_1_" gradientUnits="userSpaceOnUse" x1="-814.9752" y1="1828.7235" x2="-813.9752" y2="1827.7235" gradientTransform="matrix(848.3536 0 0 -581.7241 692083.6875 1064149.125)">
		<stop  offset="0" style="stop-color:#FFFFFF"/>
		<stop  offset="0.8335" style="stop-color:#EF4136"/>
	</linearGradient>
	<path id="Caminho_7002" class="st3" d="M733.8,695.4c66.9,69.4,192.6,48.7,288.8,78.2c110.9,34.1,199.7,91.6,310.2,137
		c107.2,44,287.4-29.7,163-183c-49-60.4-95.5-103.8-128-175.7c-36.2-80-59.9-152.1-152.1-189.2C982.6,269,550.4,505.2,733.8,695.4z"
		/>
	
		<linearGradient id="Caminho_7003_1_" gradientUnits="userSpaceOnUse" x1="-817.798" y1="1832.3881" x2="-816.798" y2="1831.3881" gradientTransform="matrix(-704.2534 -406.6009 -276.5369 478.9759 -67828.0703 -1209592.25)">
		<stop  offset="9.497549e-04" style="stop-color:#FFFFFF"/>
		<stop  offset="1" style="stop-color:#EF4136"/>
	</linearGradient>
	<path id="Caminho_7003" class="st4" d="M819.7,27c23.2,89.3,137.5,131.1,203.7,201c76.3,80.5,123.3,170.2,194,259.9
		c68.6,87.1,252.9,110.4,221.1-76c-12.5-73.4-30.9-131.4-24.4-206.6c7.3-83.7,21.3-154.9-38.1-229.2
		C1225.9-211.4,756-217.7,819.7,27z"/>
	<path class="st5" d="M445.9-132.7h-81.6v46.8h81.6v81.6h46.9v-81.6v-46.8H445.9z"/>
</g>
</svg>
