<svg xmlns="http://www.w3.org/2000/svg" xmlns:xlink="http://www.w3.org/1999/xlink" width="1366" height="660.465" viewBox="0 0 1366 660.465">
  <defs>
    <linearGradient id="linear-gradient" x1="1" x2="0" y2="1" gradientUnits="objectBoundingBox">
      <stop offset="0" stop-color="#ffba8f"/>
      <stop offset="1" stop-color="#f4436c"/>
    </linearGradient>
    <clipPath id="clip-path">
      <rect id="Retângulo_18713" data-name="Retângulo 18713" width="1366" height="660.465" fill="url(#linear-gradient)"/>
    </clipPath>
    <linearGradient id="linear-gradient-4" x1="0" x2="1" xlink:href="#linear-gradient"/>
  </defs>
  <g id="Grupo_29506" data-name="Grupo 29506" clip-path="url(#clip-path)">
    <path id="Caminho_7000" data-name="Caminho 7000" d="M-1.658,157.133C70.644,51.962,176.482,33.48,304.965,37.38,414.9,40.72,534.077,66.429,635.026,31.171c100.64-35.15,169.752-99.414,278.8-94.614,146.206,6.437,210.478,106.429,202.95,203.9C1106.34,275.6,970.3,343.155,834.34,334.522,721.831,327.38,602.677,317.694,503.1,379.393,411.373,436.22,350.726,561.548,222.307,564.24,76.665,567.292-135.386,351.643-1.658,157.133Z" transform="translate(-84.633 -95.648)" fill="url(#linear-gradient)"/>
    <g id="Grupo_29505" data-name="Grupo 29505" transform="translate(-374.3 -198.893)">
      <path id="Caminho_7001" data-name="Caminho 7001" d="M-114.631,300.089C-74.177,188.812,19.508,151.848,139.938,131.462,242.983,114.019,360.31,115.647,445.18,64c84.613-51.486,132.508-124.14,235.1-140.058C817.83-97.4,903.021-16.458,920.82,75.556c24.681,127.577-84.59,215.8-213.175,233.19C601.24,323.136,488.011,336.4,411.136,412.366c-70.8,69.97-95.3,197.808-213.986,224.312C62.537,666.735-189.452,505.9-114.631,300.089Z" transform="translate(128.238 79.506)" fill="url(#linear-gradient)"/>
      <path id="Caminho_7002" data-name="Caminho 7002" d="M264.513,426.451c66.934,69.422,192.6,48.651,288.845,78.23,110.885,34.077,199.728,91.626,310.214,136.951,107.249,44,287.38-29.654,162.968-183.045-49-60.411-95.521-103.824-128.048-175.7C862.284,202.865,838.6,130.739,746.343,93.667,513.355.055,81.15,236.262,264.513,426.451Z" transform="translate(797.12 307.774)" opacity="0.47" fill="url(#linear-gradient-4)"/>
      <path id="Caminho_7003" data-name="Caminho 7003" d="M1043.98,163.344C979.2,97.612,859.4,118.568,767.093,91.161,660.752,59.584,575.183,5.388,469.083-36.934,366.1-78.015,194.895-6.063,315.6,139.38c47.537,57.28,92.5,98.34,124.444,166.723,35.554,76.127,59.043,144.822,147.631,179.421C811.382,572.9,1221.447,343.419,1043.98,163.344Z" transform="translate(1955.607 662.009) rotate(-150)" opacity="0.84" fill="url(#linear-gradient-4)"/>
      <g id="Grupo_29504" data-name="Grupo 29504" transform="translate(280.75 11.115)">
        <path id="Caminho_7005" data-name="Caminho 7005" d="M73.294,633.354q-2.863,0-5.692-.08c-38.654-1.121-70.448-14.139-87.237-35.721-24.608-31.63-16.234-83.544,57.947-128.22l.42.51-.42-.51c24.667-14.86,48.715-27.788,71.972-40.288,77.448-41.632,144.332-77.59,191.821-161.224,15.718-27.683,28.2-61.43,41.427-97.158C378.917,75.041,419.021-33.346,538.158-66.88c115.617-32.546,269.283,37.3,363.134,115.967,71.946,60.311,106.11,121.1,91.385,162.607-9.495,26.767-38.35,44.176-85.766,51.738-45.8,7.3-89.149,4.393-131.069,1.576-72.906-4.9-141.769-9.526-212.393,40.406-50.828,35.938-97.234,80.129-142.114,122.864-62.582,59.593-127.3,121.218-207.212,164.5C165.009,619.387,116.458,633.354,73.294,633.354ZM600.953-73.82a229.691,229.691,0,0,0-62.337,8.128C420.185-32.356,380.2,75.7,344.921,171.043c-13.234,35.771-25.738,69.56-41.5,97.325-47.673,83.954-114.724,120-192.361,161.737-23.24,12.493-47.27,25.411-71.9,40.248-73.376,44.2-81.788,95.382-57.573,126.5,32.746,42.092,122.87,53.847,231.762-5.131,79.748-43.2,144.393-104.753,206.911-164.286,44.915-42.77,91.359-87,142.268-122.987,71.079-50.26,140.228-45.619,213.435-40.691,41.826,2.809,85.077,5.719,130.689-1.561,46.835-7.467,75.311-24.586,84.639-50.873,14.343-40.439-20.534-102.263-91.014-161.349C822.846-14.919,704.623-73.82,600.953-73.82Z" transform="translate(32.051 75.063)" fill="url(#linear-gradient)"/>
      </g>
    </g>
  </g>
</svg>
